arm26_states
version=1
nRows=15
nColumns=17
inDegrees=yes

# SIMM Motion File Header:
name arm26_states
datacolumns 17
datarows 15
otherdata 1
range 0.46788991 0.47052878
endheader
time	/jointset/r_shoulder/r_shoulder_elev/value	/jointset/r_shoulder/r_shoulder_elev/speed	/jointset/r_elbow/r_elbow_flex/value	/jointset/r_elbow/r_elbow_flex/speed	/forceset/TRIlong/activation	/forceset/TRIlong/fiber_length	/forceset/TRIlat/activation	/forceset/TRIlat/fiber_length	/forceset/TRImed/activation	/forceset/TRImed/fiber_length	/forceset/BIClong/activation	/forceset/BIClong/fiber_length	/forceset/BICshort/activation	/forceset/BICshort/fiber_length	/forceset/BRA/activation	/forceset/BRA/fiber_length
      0.46788991	     -1.06444368	   -427.98945491	    152.97937479	   -209.20025545	     -0.02449871	      0.18532816	     -0.02449871	      0.12115754	     -0.02449871	      0.11619681	29949118364275822134982679088332140699232053420931772067062804923595028605664946823787782673937081619266390214063292829141790076730518303611764539219459314982844048080896.00000000	      0.04899107	54198852288689918979448261949618000466397335920872994793876781567594007460071971848236422595388339076348886397004140261854477646492241551075311616.00000000	      0.04876484	     -0.02449871	      0.04443020
      0.46813370	     -1.16867765	   -427.14496955	    152.92866729	   -206.80124812	     -0.02453010	      0.18527713	     -0.02453010	      0.12116858	     -0.02453010	      0.11620792	29949118364275822134982679088332140699232053420931772067062804923595028605664946823787782673937081619266390214063292829141790076730518303611764539219459314982844048080896.00000000	      0.04904172	54198852288689918979448261949618000466397335920872994793876781567594007460071971848236422595388339076348886397004140261854477646492241551075311616.00000000	      0.04879240	     -0.02453010	      0.04444464
      0.46831069	     -1.24422583	   -426.52775608	    152.89221918	   -205.05436519	     -0.02455288	      0.18519359	     -0.02455288	      0.12117651	     -0.02455288	      0.11621590	29949118364275822134982679088332140699232053420931772067062804923595028605664946823787782673937081619266390214063292829141790076730518303611764539219459314982844048080896.00000000	      0.04907841	54198852288689918979448261949618000466397335920872994793876781567594007460071971848236422595388339076348886397004140261854477646492241551075311616.00000000	      0.04881249	     -0.02455288	      0.04445504
      0.46848769	     -1.31966599	   -425.92308160	    152.85608156	   -203.29346711	     -0.02457567	      0.18518756	     -0.02457567	      0.12118439	     -0.02457567	      0.11622383	29949118364275822134982679088332140699232053420931772067062804923595028605664946823787782673937081619266390214063292829141790076730518303611764539219459314982844048080896.00000000	      0.04911503	54198852288689918979448261949618000466397335920872994793876781567594007460071971848236422595388339076348886397004140261854477646492241551075311616.00000000	      0.04883263	     -0.02457567	      0.04446536
      0.46860232	     -1.36846634	   -425.52471713	    152.83284354	   -202.15381725	     -0.02459043	      0.18517104	     -0.02459043	      0.12118946	     -0.02459043	      0.11622893	29949118364275822134982679088332140699232053420931772067062804923595028605664946823787782673937081619266390214063292829141790076730518303611764539219459314982844048080896.00000000	      0.04913871	54198852288689918979448261949618000466397335920872994793876781567594007460071971848236422595388339076348886397004140261854477646492241551075311616.00000000	      0.04884571	     -0.02459043	      0.04447200
      0.46884647	     -1.47225567	   -424.67327251	    152.78378369	   -199.71951162	     -0.02462187	      0.18512084	     -0.02462187	      0.12120017	     -0.02462187	      0.11623970	29949118364275822134982679088332140699232053420931772067062804923595028605664946823787782673937081619266390214063292829141790076730518303611764539219459314982844048080896.00000000	      0.04918903	54198852288689918979448261949618000466397335920872994793876781567594007460071971848236422595388339076348886397004140261854477646492241551075311616.00000000	      0.04887364	     -0.02462187	      0.04448604
      0.46900937	     -1.54138869	   -424.10089822	    152.75138196	   -198.09143368	     -0.02464284	      0.18504956	     -0.02464284	      0.12120724	     -0.02464284	      0.11624682	29949118364275822134982679088332140699232053420931772067062804923595028605664946823787782673937081619266390214063292829141790076730518303611764539219459314982844048080896.00000000	      0.04922253	54198852288689918979448261949618000466397335920872994793876781567594007460071971848236422595388339076348886397004140261854477646492241551075311616.00000000	      0.04889234	     -0.02464284	      0.04449532
      0.46917227	     -1.61042925	   -423.53772312	    152.71924633	   -196.45253055	     -0.02466381	      0.18504210	     -0.02466381	      0.12121427	     -0.02466381	      0.11625389	29949118364275822134982679088332140699232053420931772067062804923595028605664946823787782673937081619266390214063292829141790076730518303611764539219459314982844048080896.00000000	      0.04925596	54198852288689918979448261949618000466397335920872994793876781567594007460071971848236422595388339076348886397004140261854477646492241551075311616.00000000	      0.04891107	     -0.02466381	      0.04450453
      0.46927697	     -1.65475445	   -423.17031406	    152.69873284	   -195.39980555	     -0.02467729	      0.18502298	     -0.02467729	      0.12121876	     -0.02467729	      0.11625841	29949118364275822134982679088332140699232053420931772067062804923595028605664946823787782673937081619266390214063292829141790076730518303611764539219459314982844048080896.00000000	      0.04927742	54198852288689918979448261949618000466397335920872994793876781567594007460071971848236422595388339076348886397004140261854477646492241551075311616.00000000	      0.04892313	     -0.02467729	      0.04451042
      0.46951230	     -1.75424221	   -422.34175076	    152.65302809	   -193.02764967	     -0.02470759	      0.18497123	     -0.02470759	      0.12122876	     -0.02470759	      0.11626847	29949118364275822134982679088332140699232053420931772067062804923595028605664946823787782673937081619266390214063292829141790076730518303611764539219459314982844048080896.00000000	      0.04932554	54198852288689918979448261949618000466397335920872994793876781567594007460071971848236422595388339076348886397004140261854477646492241551075311616.00000000	      0.04895031	     -0.02470759	      0.04452355
      0.46975508	     -1.85667252	   -421.48489654	    152.60646371	   -190.57073622	     -0.02473885	      0.18491860	     -0.02473885	      0.12123896	     -0.02473885	      0.11627874	29949118364275822134982679088332140699232053420931772067062804923595028605664946823787782673937081619266390214063292829141790076730518303611764539219459314982844048080896.00000000	      0.04937503	54198852288689918979448261949618000466397335920872994793876781567594007460071971848236422595388339076348886397004140261854477646492241551075311616.00000000	      0.04897842	     -0.02473885	      0.04453694
      0.46996884	     -1.94669063	   -420.72708777	    152.56595826	   -188.40034947	     -0.02476637	      0.18484514	     -0.02476637	      0.12124785	     -0.02476637	      0.11628769	29949118364275822134982679088332140699232053420931772067062804923595028605664946823787782673937081619266390214063292829141790076730518303611764539219459314982844048080896.00000000	      0.04941848	54198852288689918979448261949618000466397335920872994793876781567594007460071971848236422595388339076348886397004140261854477646492241551075311616.00000000	      0.04900325	     -0.02476637	      0.04454861
      0.47018261	     -2.03654747	   -419.97577004	    152.52591811	   -186.21752086	     -0.02479389	      0.18482645	     -0.02479389	      0.12125664	     -0.02479389	      0.11629654	29949118364275822134982679088332140699232053420931772067062804923595028605664946823787782673937081619266390214063292829141790076730518303611764539219459314982844048080896.00000000	      0.04946181	54198852288689918979448261949618000466397335920872994793876781567594007460071971848236422595388339076348886397004140261854477646492241551075311616.00000000	      0.04902812	     -0.02479389	      0.04456016
      0.47035570	     -2.10918646	   -419.35910140	    152.49383945	   -184.44912336	     -0.02481618	      0.18475519	     -0.02481618	      0.12126369	     -0.02481618	      0.11630364	29949118364275822134982679088332140699232053420931772067062804923595028605664946823787782673937081619266390214063292829141790076730518303611764539219459314982844048080896.00000000	      0.04949680	54198852288689918979448261949618000466397335920872994793876781567594007460071971848236422595388339076348886397004140261854477646492241551075311616.00000000	      0.04904830	     -0.02481618	      0.04456942
      0.47052878	     -2.18171950	   -418.75106349	    152.46206782	   -182.66998114	     -0.02483846	      0.18474545	     -0.02483846	      0.12127068	     -0.02483846	      0.11631068	29949118364275822134982679088332140699232053420931772067062804923595028605664946823787782673937081619266390214063292829141790076730518303611764539219459314982844048080896.00000000	      0.04953172	54198852288689918979448261949618000466397335920872994793876781567594007460071971848236422595388339076348886397004140261854477646492241551075311616.00000000	      0.04906852	     -0.02483846	      0.04457860
